<?xml version="1.0" encoding="UTF-8" standalone="no" ?>
<!DOCTYPE svg PUBLIC "-//W3C//DTD SVG 1.1//EN" "http://www.w3.org/Graphics/SVG/1.1/DTD/svg11.dtd">
<svg xmlns="http://www.w3.org/2000/svg" xmlns:xlink="http://www.w3.org/1999/xlink" version="1.1" width="700" height="440" viewBox="0 0 700 440" xml:space="preserve">
<desc>ORION</desc>
<defs>

                <style type="text/css">
                    @font-face {
                        font-family: "TrebuchetMS-Bold";
                        src: url("TrebuchetMS-Bold.woff") format("woff");
                        src: url("TrebuchetMS-Bold.ttf") format("truetype");
                        font-weight: normal;
                        font-style: normal;
                        font-display: swap;
                    }
                </style>
            
                <style type="text/css">
                    @font-face {
                        font-family: "AGAvantGardeCyrBook";
                        src: url("AGAvantGardeCyrBook.woff") format("woff");
                        src: url("AGAvantGardeCyrBook.ttf") format("truetype");
                        font-weight: normal;
                        font-style: normal;
                        font-display: swap;
                    }
                </style>
            
</defs>
<rect x="0" y="0" width="100%" height="100%" fill="#ffffff"></rect>
<g transform="matrix(1 0 0 1 350 220)"  >
<g style=""   >
		<g transform="matrix(0.2 0 0 0.2 -93.84 -1.69)"  >
<filter id="SVGID_91" y="-20%" height="140%" x="-20%" width="140%" >
	<feGaussianBlur in="SourceAlpha" stdDeviation="0"></feGaussianBlur>
	<feOffset dx="0" dy="0" result="oBlur" ></feOffset>
	<feFlood flood-color="rgb(0,0,0)" flood-opacity="1"/>
	<feComposite in2="oBlur" operator="in" />
	<feMerge>
		<feMergeNode></feMergeNode>
		<feMergeNode in="SourceGraphic"></feMergeNode>
	</feMerge>
</filter>
<g style="filter: url(#SVGID_91);"   >
		<g transform="matrix(1 0 0 1 -47.19 53.78)" id="XMLID_1158_"  >
<linearGradient id="SVGID_XMLID_2__1" gradientUnits="userSpaceOnUse" gradientTransform="matrix(0.98 -0.07 -0.07 0.76 -34.72 -121.73)"  x1="685.8401" y1="171.6351" x2="210.1419" y2="680.4399">
<stop offset="0%" style="stop-color:#44BBFF;stop-opacity: 1"/>
<stop offset="100%" style="stop-color:#16A086;stop-opacity: 1"/>
</linearGradient>
<path style="stroke: none; stroke-width: 1; stroke-dasharray: none; stroke-linecap: butt; stroke-dashoffset: 0; stroke-linejoin: miter; stroke-miterlimit: 4; fill: url(#SVGID_XMLID_2__1); fill-rule: nonzero; opacity: 1;"  transform=" translate(-208.81, -309.78)" d="M 61 387.5 c -19 -67 94 -157.7 252.4 -202.7 c 35.9 -10.2 71.1 -17.2 104.2 -21.1 c -48.8 0.3 -105 8.3 -163.1 24.8 C 96.1 233.5 -16.9 324.3 2.1 391.2 c 14.7 51.8 104 74.2 217 60.9 C 135 452.6 73 429.9 61 387.5 z" stroke-linecap="round" />
</g>
		<g transform="matrix(1 0 0 1 -47.2 -84.15)" id="XMLID_1313_"  >
<linearGradient id="SVGID_XMLID_3__2" gradientUnits="userSpaceOnUse" gradientTransform="matrix(1 0 0 1 0 0)"  x1="337.9041" y1="23.5797" x2="-137.7645" y2="532.3528">
<stop offset="0%" style="stop-color:#44BBFF;stop-opacity: 1"/>
<stop offset="100%" style="stop-color:#16A086;stop-opacity: 1"/>
</linearGradient>
<path style="stroke: none; stroke-width: 1; stroke-dasharray: none; stroke-linecap: butt; stroke-dashoffset: 0; stroke-linejoin: miter; stroke-miterlimit: 4; fill: url(#SVGID_XMLID_3__2); fill-rule: nonzero; opacity: 1;"  transform=" translate(-208.8, -171.85)" d="M 56.9 266 c 0.3 -0.2 0.6 -0.5 0.9 -0.7 c -0.5 -5.2 -0.8 -10.4 -0.8 -15.8 c 0 -91.5 74.2 -165.6 165.6 -165.6 c 55.2 0 104.1 27 134.2 68.5 c 10.7 -1.1 21.3 -1.9 31.6 -2.4 c -33.8 -56.2 -95.4 -93.8 -165.8 -93.8 c -106.8 0 -193.4 86.6 -193.4 193.4 c 0 13 1.3 25.6 3.7 37.9 C 40.1 280.2 48.1 273 56.9 266 z" stroke-linecap="round" />
</g>
		<g transform="matrix(1 0 0 1 -114.2 168.9)" id="XMLID_1323_"  >
<path style="stroke: none; stroke-width: 1; stroke-dasharray: none; stroke-linecap: butt; stroke-dashoffset: 0; stroke-linejoin: miter; stroke-miterlimit: 4; fill: rgb(39,174,96); fill-rule: nonzero; opacity: 1;"  transform=" translate(-141.8, -424.9)" d="M 150 428.7 c -5.6 -2.3 -11.1 -4.8 -16.4 -7.6 C 138.5 424.1 144 426.6 150 428.7 z" stroke-linecap="round" />
</g>
		<g transform="matrix(1 0 0 1 50.7 52.3)" id="XMLID_1325_"  >
<path style="stroke: none; stroke-width: 1; stroke-dasharray: none; stroke-linecap: butt; stroke-dashoffset: 0; stroke-linejoin: miter; stroke-miterlimit: 4; fill: rgb(39,174,96); fill-rule: nonzero; opacity: 1;"  transform=" translate(-306.7, -308.3)" d="M 512 204.4 c -30.2 0.2 -63.8 3.8 -98.9 11.2 c -8.9 1.9 -18 4 -27.1 6.3 c -4.6 1.2 -9.2 2.4 -13.8 3.7 c -72.1 20.5 -124.4 44 -168.1 86.2 c -35.3 34 -38.6 75.9 -12.3 100.4 c -0.2 0 -0.4 -0.1 -0.6 -0.1 c -40.5 -7.8 -59.7 -54.9 -36.3 -88.8 c 36.1 -52.5 121.5 -101.5 230.7 -128.8 c 35.5 -8.9 69.7 -16.8 102.3 -20.7 c -47.9 0.2 -103 8.1 -160 24.3 c -82.6 23.4 -142.5 50.4 -192.6 98.7 c -21.5 20.7 -32.6 44 -33.8 65.5 c -1.3 23.8 9.6 45.4 32.1 58.8 c 5.3 2.8 10.8 5.3 16.4 7.6 c 22.4 9.1 47 14.1 72.7 14.1 c 106.8 0 193.4 -86.6 193.4 -193.4 c 0 -8.4 -0.6 -16.7 -1.6 -24.9 c 2.7 -0.7 5.5 -1.4 8.2 -2.1 C 453.7 214.7 483.6 207.8 512 204.4 z M 388.4 249.5 c 0 91.5 -69.7 165.6 -171.7 165.5 l 0 0 c -59 -65 52.9 -145.2 170.9 -182.6 C 388.1 238 388.4 243.7 388.4 249.5 z" stroke-linecap="round" />
</g>
</g>
</g>
		<g transform="matrix(1 0 0 1 55.16 -1.69)" style="filter: url(#SVGID_92);"  >
<linearGradient id="SVGID_93" gradientUnits="userSpaceOnUse" gradientTransform="matrix(1 0 0 1 -88.89 -33.9)"  x1="0" y1="0" x2="177.7734375" y2="0">
<stop offset="0%" style="stop-color:rgb(64,188,134);stop-opacity: 1"/>
<stop offset="100%" style="stop-color:rgb(22,160,133);stop-opacity: 1"/>
</linearGradient>
<filter id="SVGID_92" y="-20%" height="140%" x="-20%" width="140%" >
	<feGaussianBlur in="SourceAlpha" stdDeviation="0"></feGaussianBlur>
	<feOffset dx="0" dy="0" result="oBlur" ></feOffset>
	<feFlood flood-color="rgb(0,0,0)" flood-opacity="1"/>
	<feComposite in2="oBlur" operator="in" />
	<feMerge>
		<feMergeNode></feMergeNode>
		<feMergeNode in="SourceGraphic"></feMergeNode>
	</feMerge>
</filter>
		<text xml:space="preserve" font-family="TrebuchetMS-Bold" font-size="60" font-style="normal" font-weight="400" text-decoration="underline" style="stroke: rgb(0,0,0); stroke-width: 0; stroke-dasharray: none; stroke-linecap: butt; stroke-dashoffset: 0; stroke-linejoin: round; stroke-miterlimit: 4; fill: url(#SVGID_93); fill-rule: nonzero; opacity: 1; white-space: pre;" paint-order="stroke"  ><tspan x="-88.89" y="18.85" >ORION</tspan></text>
</g>
		<g transform="matrix(1 0 0 1 55.16 42.31)" style="filter: url(#SVGID_94);"  >
<filter id="SVGID_94" y="-20%" height="140%" x="-20%" width="140%" >
	<feGaussianBlur in="SourceAlpha" stdDeviation="0"></feGaussianBlur>
	<feOffset dx="0" dy="0" result="oBlur" ></feOffset>
	<feFlood flood-color="rgb(0,0,0)" flood-opacity="1"/>
	<feComposite in2="oBlur" operator="in" />
	<feMerge>
		<feMergeNode></feMergeNode>
		<feMergeNode in="SourceGraphic"></feMergeNode>
	</feMerge>
</filter>
		<text xml:space="preserve" font-family="AGAvantGardeCyrBook" font-size="17.5" font-style="italic" font-weight="400" style="stroke: rgb(0,0,0); stroke-width: 0; stroke-dasharray: none; stroke-linecap: butt; stroke-dashoffset: 0; stroke-linejoin: round; stroke-miterlimit: 4; fill: rgb(67,135,181); fill-rule: nonzero; opacity: 1; white-space: pre;" paint-order="stroke"  ><tspan x="-89.18" y="5.5" >Per aspera ad astra</tspan></text>
</g>
</g>
</g>
</svg>